<svg xmlns="http://www.w3.org/2000/svg" width="1100" height="600" viewBox="0 0 1100 600">
<defs>
<marker id="arrow" markerWidth="10" markerHeight="10" refX="8" refY="3" orient="auto" markerUnits="strokeWidth">
<path d="M0,0 L0,6 L9,3 z" fill="#34495e"/>
</marker>
</defs>
<rect width="1100" height="600" fill="white"/>
<text x="550.0" y="36" font-size="24" text-anchor="middle" font-family="Arial">Figure 4. Dataset Overview</text>
<rect x="80" y="120" width="300" height="120" rx="10" ry="10" fill="#f3f6fb" stroke="#2c3e50" stroke-width="2"/>
<text x="230.0" y="170.0" font-size="18" text-anchor="middle" font-family="Arial"><tspan x="230.0" dy="0">Dataset A</tspan><tspan x="230.0" dy="18">Main chromosome benchmark</tspan></text>
<rect x="720" y="120" width="300" height="120" rx="10" ry="10" fill="#f3f6fb" stroke="#2c3e50" stroke-width="2"/>
<text x="870.0" y="170.0" font-size="18" text-anchor="middle" font-family="Arial"><tspan x="870.0" dy="0">Dataset B</tspan><tspan x="870.0" dy="18">single_chromosomes_object</tspan></text>
<rect x="80" y="320" width="300" height="160" rx="10" ry="10" fill="#f7f9f9" stroke="#2c3e50" stroke-width="2"/>
<text x="230.0" y="390.0" font-size="18" text-anchor="middle" font-family="Arial"><tspan x="230.0" dy="0">Representative image</tspan><tspan x="230.0" dy="18">placeholder</tspan></text>
<rect x="400" y="320" width="300" height="160" rx="10" ry="10" fill="#f7f9f9" stroke="#2c3e50" stroke-width="2"/>
<text x="550.0" y="390.0" font-size="18" text-anchor="middle" font-family="Arial"><tspan x="550.0" dy="0">Stats panel</tspan><tspan x="550.0" dy="18">placeholder</tspan></text>
<rect x="720" y="320" width="300" height="160" rx="10" ry="10" fill="#f7f9f9" stroke="#2c3e50" stroke-width="2"/>
<text x="870.0" y="390.0" font-size="18" text-anchor="middle" font-family="Arial"><tspan x="870.0" dy="0">Representative image</tspan><tspan x="870.0" dy="18">placeholder</tspan></text>
<line x1="230" y1="240" x2="230" y2="320" stroke="#34495e" stroke-width="2.5" marker-end="url(#arrow)"/>
<line x1="870" y1="240" x2="870" y2="320" stroke="#34495e" stroke-width="2.5" marker-end="url(#arrow)"/>
<text x="80" y="545" font-size="16" font-family="Arial">Replace with actual image crops, annotation overlays, and dataset statistics.</text>
</svg>
